<svg xmlns="http://www.w3.org/2000/svg" viewBox="0 0 110 80"><g fill="#ffffff"><path fill-rule="evenodd" clip-rule="evenodd" d="M64 1.512c-23.493 0-42.545 19.047-42.545 42.545 0 18.797 12.19 34.745 29.095 40.37 2.126.394 2.907-.923 2.907-2.047 0-1.014-.04-4.366-.058-7.92-11.837 2.573-14.334-5.02-14.334-5.02-1.935-4.918-4.724-6.226-4.724-6.226-3.86-2.64.29-2.586.29-2.586 4.273.3 6.523 4.385 6.523 4.385 3.794 6.504 9.953 4.623 12.38 3.536.383-2.75 1.485-4.628 2.702-5.69-9.45-1.075-19.384-4.724-19.384-21.026 0-4.645 1.662-8.44 4.384-11.42-.442-1.072-1.898-5.4.412-11.26 0 0 3.572-1.142 11.7 4.363 3.395-.943 7.035-1.416 10.65-1.432 3.616.017 7.258.49 10.658 1.432 8.12-5.504 11.688-4.362 11.688-4.362 2.316 5.86.86 10.187.418 11.26 2.728 2.978 4.378 6.774 4.378 11.42 0 16.34-9.953 19.938-19.427 20.99 1.526 1.32 2.886 3.91 2.886 7.88 0 5.692-.048 10.273-.048 11.674 0 1.13.766 2.458 2.922 2.04 16.896-5.632 29.07-21.574 29.07-40.365C106.545 20.56 87.497 1.512 64 1.512z"/></g></svg>