<svg xmlns="http://www.w3.org/2000/svg" id="Layer_1" viewBox="0 0 22.6 18.9">
    <style>
        .st0{fill:#ffffff}
    </style>
    <path d="M22.6 9.3c0-1.2-1-2.2-2.2-2.2-.7 0-1.3.3-1.7.8-1.7-1.2-4.1-2-6.7-2.1l1.4-4.6 4 .9c.1.9.8 1.6 1.7 1.6 1 0 1.8-.8 1.8-1.8S20.1.1 19.1.1c-.7 0-1.3.4-1.5.9l-4.9-1-1.8 5.8c-2.8 0-5.2.8-7 2-.4-.5-1-.8-1.7-.8C1 7 0 8 0 9.3c0 .9.5 1.7 1.3 2-.1.3-.1.7-.1 1 0 3.6 4.5 6.6 10.1 6.6s10.1-2.9 10.1-6.6c0-.3 0-.7-.1-1 .7-.3 1.3-1.1 1.3-2zM6.1 11c0-.9.7-1.6 1.6-1.6.9 0 1.6.8 1.6 1.6 0 .9-.7 1.6-1.6 1.6-.8.1-1.6-.7-1.6-1.6zm9.1 4.7c-.8.8-2.1 1.2-3.8 1.2-1.8 0-3-.4-3.8-1.2-.2-.2-.2-.5 0-.7.2-.2.5-.2.7 0 .6.6 1.6.9 3.1.9s2.5-.3 3.1-.9c.2-.2.5-.2.7 0 .2.2.2.5 0 .7zm-.3-3c-.9 0-1.6-.7-1.6-1.6 0-.9.7-1.6 1.6-1.6.9 0 1.6.7 1.6 1.6 0 .8-.7 1.6-1.6 1.6z" class="st0"/>
</svg>
